<?xml version="1.0" standalone="no"?><!DOCTYPE svg PUBLIC "-//W3C//DTD SVG 1.1//EN" "http://www.w3.org/Graphics/SVG/1.1/DTD/svg11.dtd"><svg width="100%" height="100%" viewBox="0 0 701 701" version="1.1" xmlns="http://www.w3.org/2000/svg" xmlns:xlink="http://www.w3.org/1999/xlink" xml:space="preserve" style="fill-rule:evenodd;clip-rule:evenodd;stroke-linejoin:round;stroke-miterlimit:1.41421;"><path id="path10808" d="M462.139,640.874c-99.063,-12.714 -159.126,-20.369 -181.911,-23.184l-13.912,-1.718l-32.588,3.321c-17.924,1.826 -48.114,4.996 -67.089,7.045c-18.975,2.048 -34.892,3.519 -35.37,3.267c-0.479,-0.251 -0.583,-5.233 -0.232,-11.073c0.351,-5.839 2.647,-45.267 5.103,-87.617c5.274,-90.93 7.169,-123.082 8.589,-145.662l1.048,-16.662l11.3,-37.624c6.215,-20.693 11.57,-37.894 11.901,-38.224c0.33,-0.33 2.874,0.378 5.654,1.574c12.687,5.458 75.626,35.382 76.618,36.427c0.762,0.804 1.905,32.038 3.642,99.514c1.738,67.531 2.879,98.69 3.641,99.452c0.812,0.812 11.346,0.378 39.358,-1.623c21.036,-1.503 40.948,-2.718 44.248,-2.7c3.3,0.017 27.514,3.181 53.809,7.03c48.892,7.157 53.175,7.642 54.111,6.127c0.432,-0.699 5.614,-41.629 16.157,-127.629c0.345,-2.815 5.842,-18.185 12.583,-35.184c11.095,-27.978 12.167,-30.226 14.655,-30.735c1.477,-0.303 11.46,-1.695 22.185,-3.093c10.725,-1.399 20.962,-2.805 22.75,-3.126c3.177,-0.571 3.25,-0.502 3.25,3.044c0,4.415 -9.066,107.009 -14.059,159.094c-0.893,9.308 -2.828,17 -12.578,50c-14.767,49.976 -25.201,85.124 -26.498,89.25c-1.245,3.966 -1.034,3.96 -26.365,0.709l0,0ZM469.639,300.565c-9.075,-3.753 -29.803,-12.28 -46.062,-18.948l-29.562,-12.124l-39.889,-5.573c-21.939,-3.065 -40.098,-5.782 -40.355,-6.039c-0.256,-0.256 0.293,-20.378 1.221,-44.716c0.928,-24.337 1.678,-45.658 1.667,-47.38c-0.016,-2.48 2.49,-6.406 12.057,-18.888c6.643,-8.667 12.456,-16.755 12.92,-17.973c0.463,-1.218 6.126,-22.194 12.584,-46.612c6.458,-24.418 12.103,-44.808 12.546,-45.312c0.474,-0.54 6.251,0.617 14.088,2.82c70.978,19.956 108.628,30.695 158.785,45.291c12.375,3.601 25.762,7.444 29.75,8.541c3.987,1.096 7.25,2.445 7.25,2.998c0,1.127 -7.291,17.561 -34.278,77.265c-12.584,27.84 -22.886,52.556 -32.094,77c-7.459,19.8 -15.266,40.495 -17.349,45.988c-2.25,5.931 -4.395,10.088 -5.284,10.236c-0.822,0.137 -8.92,-2.821 -17.995,-6.574l0,0Z" style="fill:#4abad8;fill-rule:nonzero;"/></svg>
